<svg width="800" height="800" viewBox="0 0 800 800" fill="none" xmlns="http://www.w3.org/2000/svg">
<path fill-rule="evenodd" clip-rule="evenodd" d="M620.6 701.7C620.3 703.3 620.1 703.9 617.3 703.9H593.3H593.2H441.3C438.3 703.9 435.2 703.5 432 702.6L361.1 632.9L248.2 506.6C243.4 501.1 238.7 498.4 234.1 498.4C232.4 498.4 230.8 498.8 229.2 499.5C228.3 499.9 227.5 500.4 226.8 500.9C222.8 503.9 220.7 509.3 220.7 516.9V691.4C220.7 695 219.5 697.8 217 700.3C214.5 702.8 211.7 704 208.1 704H80.5C75.2 704 72.8 702 71.4 700.5C69.1 698 68 695.1 68 691.4V109.5C68 105.8 69.1 102.9 71.4 100.4C72.8 98.9 75.2 96.9 80.5 96.9H208.1C211.7 96.9 214.5 98 217 100.5C219.5 103 220.7 105.8 220.7 109.4V305.1C220.7 312.9 222.8 318.2 226.8 321C227.5 321.5 228.3 322 229.2 322.3C235.1 324.5 241.1 321.7 246.8 314.1L399.9 110.9C402.6 107.3 406.5 104.2 411.6 101.7C416.8 99.1 421.8 97.8 426.8 97.8H581.5L589.2 97.7C592.679 97.7 593.076 98.8209 593.55 100.16C593.567 100.206 593.583 100.253 593.6 100.3C593.646 100.438 593.671 100.575 593.694 100.703C593.721 100.854 593.746 100.992 593.8 101.1C594.4 103.6 594 105.8 592.3 108L368.8 387.7L368.6 387.9C364.1 393.9 362 400.9 362.4 408.7C362.7 416.6 365.6 423.4 370.9 428.7C373.651 431.663 376.425 434.654 379.219 437.667C388.307 447.467 397.616 457.504 407.1 467.6C415.4 476.4 423.7 485.2 432.2 494.2C451.6 514.6 470.8 535.1 489.4 555.1L496.3 562.6C507.641 574.841 518.874 587.01 530.021 599.086C537.45 607.134 544.841 615.141 552.2 623.1L559.2 630.7C579.7 652.9 599.6 673.9 618.3 693.2C619.2 694.3 619.8 695.3 620.3 696.4L620.213 696.43C620.901 698.021 620.997 699.713 620.6 701.7ZM735.8 614.4C747.4 590.3 753.2 559.8 753.2 522.9C753.2 504.7 750.8 488.5 745.8 474.5C741 460.4 734.7 447.9 727.1 437.1C719.5 426.3 711.1 417.3 702 409.9C692.9 402.5 683.9 396.3 674.8 391.2C663.5 385.5 662.9 379 673.1 371.6C687.9 360.9 701.7 346.1 714.4 327.4C727.2 308.7 733.6 286.6 733.6 261.1C733.6 229.3 727.8 202.5 716.2 180.7C704.5 158.9 689.2 141.1 670.2 127.5C661.7 121.4 652.5 116.1 642.8 111.5C637.5 108.9 631.3 111 628.1 116C627.7 116.5 627.3 117.1 626.9 117.7L626.8 117.9L533.1 235.1C528.9 240.4 530.2 248.1 535.8 251.9C537.8 253.3 539.8 254.9 541.9 256.7C550.1 264.1 554.2 272.9 554.2 283.1C554.2 293.8 550.8 303.6 544 312.4C537.2 321.2 528.1 325.6 516.8 325.6H466.4C462.8 325.6 459.4 327.2 457.2 330L403.1 397.6C400.9 400.6 399.9 404.1 400.1 408.1C400.3 412.2 401.6 415.2 404.2 417.8L404.4 418C417.6 432.3 431.3 447.1 445.5 462.2C447.7 464.6 450.8 465.9 454 465.9H526.9C541.6 465.9 553.4 471.1 562.2 481.6C571 492.1 575.4 502.5 575.4 512.7C575.4 524.1 570.9 534 561.8 542.5C552.8 551 543.1 555.2 532.9 555.2C550.7 574.4 568.4 593.5 585.8 612.4L592.8 620C613.2 642.2 633.1 663.1 651.8 682.4L652.1 682.7L652.2 682.8C655.8 687.1 661.8 688.3 666.8 685.7C674.4 681.7 681.7 677.2 688.6 672.2C708.4 657.8 724.2 638.5 735.8 614.4Z" fill="url(#paint0_linear_16_2)"/>
<defs>
<linearGradient id="paint0_linear_16_2" x1="410.6" y1="229" x2="410.6" y2="533" gradientUnits="userSpaceOnUse">
<stop stop-color="#6366F1"/>
<stop offset="1" stop-color="#4F46E5"/>
</linearGradient>
</defs>
</svg>
